<svg width="1080" height="900" viewBox="0 0 1080 900" fill="none" xmlns="http://www.w3.org/2000/svg">
  <rect width="1080" height="900" rx="18" fill="#0f141a"/>
  <rect x="0" y="0" width="220" height="900" fill="#0b1016"/>
  <rect x="18" y="20" width="42" height="34" rx="8" fill="#1f6feb"/>
  <text x="29" y="43" fill="white" font-family="Arial" font-size="18" font-weight="700">AJ</text>
  <text x="72" y="43" fill="#e6edf3" font-family="Arial" font-size="22" font-weight="700">MDT</text>
  <g fill="#0f141a">
    <rect x="14" y="88" width="192" height="40" rx="8"/>
    <rect x="14" y="138" width="192" height="40" rx="8"/>
    <rect x="14" y="188" width="192" height="40" rx="8"/>
    <rect x="14" y="238" width="192" height="40" rx="8"/>
    <rect x="14" y="288" width="192" height="40" rx="8"/>
  </g>
  <text x="36" y="115" fill="#c9d1d9" font-family="Arial" font-size="15">Dashboard</text>
  <text x="36" y="165" fill="#c9d1d9" font-family="Arial" font-size="15">Citizens</text>
  <text x="36" y="215" fill="#c9d1d9" font-family="Arial" font-size="15">Cases</text>
  <text x="36" y="265" fill="#c9d1d9" font-family="Arial" font-size="15">Vehicles</text>
  <text x="36" y="315" fill="#c9d1d9" font-family="Arial" font-size="15">Wanted</text>
  <rect x="248" y="22" width="790" height="44" rx="10" fill="#0b1016" stroke="#1f2937"/>
  <text x="275" y="50" fill="#9ca3af" font-family="Arial" font-size="16">Search name / CID / plate...</text>
  <text x="248" y="116" fill="#e6edf3" font-family="Arial" font-size="36" font-weight="700">AJ MDT Dashboard</text>
  <text x="248" y="146" fill="#9ca3af" font-family="Arial" font-size="17">Live QBCore Police Mobile Data Terminal</text>
  <g>
    <rect x="248" y="178" width="240" height="92" rx="14" fill="#0b1016" stroke="#1f2937"/>
    <rect x="514" y="178" width="240" height="92" rx="14" fill="#0b1016" stroke="#1f2937"/>
    <rect x="780" y="178" width="240" height="92" rx="14" fill="#0b1016" stroke="#1f2937"/>
    <text x="274" y="215" fill="#9ca3af" font-family="Arial" font-size="15">Citizens</text>
    <text x="274" y="250" fill="#e6edf3" font-family="Arial" font-size="30" font-weight="700">128</text>
    <text x="540" y="215" fill="#9ca3af" font-family="Arial" font-size="15">Cases</text>
    <text x="540" y="250" fill="#e6edf3" font-family="Arial" font-size="30" font-weight="700">24</text>
    <text x="806" y="215" fill="#9ca3af" font-family="Arial" font-size="15">Vehicles</text>
    <text x="806" y="250" fill="#e6edf3" font-family="Arial" font-size="30" font-weight="700">312</text>
  </g>
  <rect x="248" y="304" width="360" height="500" rx="14" fill="#0b1016" stroke="#1f2937"/>
  <rect x="634" y="304" width="386" height="500" rx="14" fill="#0b1016" stroke="#1f2937"/>
  <text x="274" y="344" fill="#e6edf3" font-family="Arial" font-size="22" font-weight="700">Latest Cases</text>
  <text x="660" y="344" fill="#e6edf3" font-family="Arial" font-size="22" font-weight="700">Citizen Profile</text>
  <g fill="#0f141a" stroke="#1f2937">
    <rect x="272" y="370" width="310" height="58" rx="10"/>
    <rect x="272" y="444" width="310" height="58" rx="10"/>
    <rect x="272" y="518" width="310" height="58" rx="10"/>
    <rect x="658" y="370" width="336" height="58" rx="10"/>
    <rect x="658" y="444" width="336" height="58" rx="10"/>
    <rect x="658" y="518" width="336" height="58" rx="10"/>
  </g>
  <text x="294" y="404" fill="#e6edf3" font-family="Arial" font-size="16">#102 Vehicle Theft</text>
  <text x="294" y="478" fill="#e6edf3" font-family="Arial" font-size="16">#101 Assault</text>
  <text x="294" y="552" fill="#e6edf3" font-family="Arial" font-size="16">#100 Evading Police</text>
  <text x="680" y="404" fill="#e6edf3" font-family="Arial" font-size="16">Name: Citizen Profile</text>
  <text x="680" y="478" fill="#e6edf3" font-family="Arial" font-size="16">Vehicles / Properties</text>
  <text x="680" y="552" fill="#e6edf3" font-family="Arial" font-size="16">Cases / Wanted</text>
</svg>
